<?xml version="1.0" encoding="UTF-8"?>
<!-- Generator: https://ezgif.com/png-to-svg -->
<svg version="1.1" xmlns="http://www.w3.org/2000/svg" width="80" height="46">
<path d="M0 0 C0.68 0 1.35 0 2.05 0 C5.4 0.03 8.57 0.26 11.88 0.76 C15.08 1.43 15.08 1.43 18.06 0.19 C21.91 -0.12 25.77 -0.14 29.62 -0.19 C30.67 -0.22 31.72 -0.26 32.8 -0.3 C41.06 -0.39 47.56 1.05 53.77 6.76 C58.24 12.52 57.76 19.46 57.6 26.44 C57.56 28.51 57.56 30.58 57.57 32.65 C57.47 42.56 57.47 42.56 55.98 44.85 C53.04 46.9 50.53 46.57 46.98 46.58 C45.9 46.58 45.9 46.58 44.8 46.59 C42.43 46.6 40.06 46.6 37.69 46.59 C36.04 46.59 34.39 46.59 32.74 46.59 C29.29 46.6 25.84 46.59 22.38 46.58 C17.96 46.56 13.53 46.57 9.1 46.59 C5.7 46.6 2.29 46.6 -1.11 46.59 C-2.74 46.59 -4.37 46.59 -6.01 46.6 C-8.29 46.6 -10.57 46.59 -12.85 46.58 C-14.8 46.57 -14.8 46.57 -16.79 46.57 C-19.94 46.19 -19.94 46.19 -21.86 44.86 C-24.47 40.82 -23.41 34.76 -23.38 30.05 C-23.38 27.89 -23.4 25.74 -23.44 23.59 C-23.44 22.21 -23.44 20.83 -23.43 19.45 C-23.44 18.2 -23.44 16.95 -23.44 15.67 C-22.7 10.51 -20.28 7.46 -16.56 3.94 C-11.28 0.42 -6.22 -0.11 0 0 Z " fill="#D32A12" transform="translate(22.9375,-0.1875)"/>
<path d="M0 0 C0.68 0 1.35 0 2.05 0 C5.4 0.03 8.57 0.26 11.88 0.76 C15.08 1.43 15.08 1.43 18.06 0.19 C21.91 -0.12 25.77 -0.14 29.62 -0.19 C30.67 -0.22 31.72 -0.26 32.8 -0.3 C41.06 -0.39 47.56 1.05 53.77 6.76 C58.24 12.52 57.76 19.46 57.6 26.44 C57.56 28.51 57.56 30.58 57.57 32.65 C57.47 42.56 57.47 42.56 55.98 44.85 C53.04 46.9 50.53 46.57 46.98 46.58 C45.9 46.58 45.9 46.58 44.8 46.59 C42.43 46.6 40.06 46.6 37.69 46.59 C36.04 46.59 34.39 46.59 32.74 46.59 C29.29 46.6 25.84 46.59 22.38 46.58 C17.96 46.56 13.53 46.57 9.1 46.59 C5.7 46.6 2.29 46.6 -1.11 46.59 C-2.74 46.59 -4.37 46.59 -6.01 46.6 C-8.29 46.6 -10.57 46.59 -12.85 46.58 C-14.8 46.57 -14.8 46.57 -16.79 46.57 C-19.94 46.19 -19.94 46.19 -21.86 44.86 C-24.47 40.82 -23.41 34.76 -23.38 30.05 C-23.38 27.89 -23.4 25.74 -23.44 23.59 C-23.44 22.21 -23.44 20.83 -23.43 19.45 C-23.44 18.2 -23.44 16.95 -23.44 15.67 C-22.7 10.51 -20.28 7.46 -16.56 3.94 C-11.28 0.42 -6.22 -0.11 0 0 Z M-13.94 11.19 C-19.13 18.97 -15.94 29.83 -15.94 39.19 C5.84 39.19 27.62 39.19 50.06 39.19 C52.56 17.24 52.56 17.24 46.06 10.19 C40.98 6.75 36.42 6.76 30.5 6.88 C29.24 6.87 29.24 6.87 27.96 6.87 C22.69 6.91 18.35 7.14 14.25 10.81 C13.86 11.27 13.47 11.72 13.06 12.19 C12.3 11.55 11.54 10.91 10.75 10.25 C3.48 4.67 -6.92 5.85 -13.94 11.19 Z " fill="#2E242A" transform="translate(22.9375,-0.1875)"/>
<path d="M0 0 C1.72 0.01 1.72 0.01 3.48 0.02 C6.25 0.19 6.25 0.19 7.25 1.19 C7.29 3.19 7.29 5.19 7.25 7.19 C5.27 7.19 3.29 7.19 1.25 7.19 C0.92 6.2 0.59 5.21 0.25 4.19 C-0.74 3.86 -1.73 3.53 -2.75 3.19 C-2.75 4.51 -2.75 5.83 -2.75 7.19 C-5.72 7.19 -8.69 7.19 -11.75 7.19 C-11.75 5.54 -11.75 3.89 -11.75 2.19 C-7.7 0.26 -4.46 -0.06 0 0 Z " fill="#F5DDDA" transform="translate(53.75,18.8125)"/>
<path d="M0 0 C0 1.98 0 3.96 0 6 C-1.98 6 -3.96 6 -6 6 C-6.33 5.01 -6.66 4.02 -7 3 C-7.66 2.34 -8.32 1.68 -9 1 C-6.04 -0.48 -3.26 -0.06 0 0 Z " fill="#FCF6F5" transform="translate(61,20)"/>
<path d="M0 0 C3.63 0 7.26 0 11 0 C11 1.32 11 2.64 11 4 C9.68 4 8.36 4 7 4 C7 3.34 7 2.68 7 2 C6.4 2.33 5.8 2.66 5.19 3 C3 4 3 4 0 4 C0 2.68 0 1.36 0 0 Z " fill="#F5E8E6" transform="translate(19,22)"/>
</svg>
